<svg xmlns="http://www.w3.org/2000/svg" viewBox="0 0 20.5 20.49" fill="currentColor">
  <path class="cls-1" d="M6.24,20.49a6.3,6.3,0,0,1-4.41-1.78,6,6,0,0,1,0-8.67l8.94-8.73a4.66,4.66,0,0,1,6.48,0,4.46,4.46,0,0,1,0,6.39L8.69,16.07a3,3,0,0,1-4.15,0,2.86,2.86,0,0,1,0-4.11l7.9-7.73a.75.75,0,0,1,1.05,1.08L5.58,13a1.36,1.36,0,0,0-.41,1,1.38,1.38,0,0,0,.41,1,1.49,1.49,0,0,0,2.06,0L16.2,6.63a3,3,0,0,0,0-4.25,3.15,3.15,0,0,0-4.38,0L2.88,11.12a4.54,4.54,0,0,0,0,6.52,4.84,4.84,0,0,0,6.72,0l9.63-9.41a.75.75,0,1,1,1,1.07l-9.62,9.41A6.28,6.28,0,0,1,6.24,20.49Z"/>
</svg>
