<svg width="42" height="42" viewBox="0 0 42 42" fill="none" xmlns="http://www.w3.org/2000/svg">
<g clip-path="url(#clip0_203_114)">
<path d="M36.035 38.0862L34.2933 37.8429C34.8049 34.2931 35.0738 30.355 35.0738 26.3583C35.0738 19.5609 34.3164 13.1531 32.9409 8.3152C31.9899 4.97045 30.0741 0 26.5979 0C24.5248 0 22.7227 1.80748 21.2937 5.27437C20.2937 2.84157 18.6162 0 15.9882 0C12.5118 0 10.5959 4.97094 9.64516 8.31511C8.26966 13.153 7.51218 19.5608 7.51218 26.3582C7.51218 29.6151 7.68634 32.776 8.02767 35.7734C7.80684 35.8821 8.15301 35.6992 3.30643 38.301C2.51106 38.7279 2.10918 39.6375 2.32927 40.5131C2.54936 41.3886 3.33358 42 4.23642 42H35.763C36.7918 42 37.6535 41.196 37.7247 40.17C37.796 39.1438 37.0537 38.2284 36.035 38.0862ZM12.2848 9.06554C13.7034 4.07565 15.2802 2.7442 15.9881 2.7442C16.696 2.7442 18.2727 4.07557 19.6915 9.06554C20.0846 10.4476 20.4051 11.9196 20.6576 13.3336L10.9463 15.6796C11.2796 13.2549 11.7289 11.0208 12.2848 9.06554ZM10.6136 18.5832L21.0773 16.0555C21.3048 17.7856 21.4741 19.6078 21.5817 21.4859L10.2831 24.2154C10.3302 22.292 10.4409 20.4063 10.6136 18.5832ZM21.6948 24.2817C21.7938 28.416 21.5965 32.4269 21.1598 36.0077C12.5348 34.8025 12.3912 34.6741 10.6944 34.9337C10.426 32.4089 10.2817 29.7637 10.2606 27.0438L21.6948 24.2817ZM7.32958 39.2559L9.04067 38.3373C10.1958 37.7172 11.5745 37.4395 12.9715 37.6344C14.0872 37.7902 23.409 39.0928 24.5757 39.2559H7.32958ZM31.5759 37.463C31.2494 37.4174 26.2178 36.7144 23.8783 36.3874C24.8786 28.2324 24.6627 17.7235 22.7088 9.74648C24.1614 4.2183 25.8801 2.74411 26.5979 2.74411C27.3059 2.74411 28.8825 4.07548 30.3012 9.06546C31.6092 13.666 32.3296 19.8074 32.3296 26.358C32.3296 30.2308 32.0701 34.0397 31.5759 37.463Z" fill="#333333" style="fill:#333333;fill:color(display-p3 0.2000 0.2000 0.2000);fill-opacity:1;"/>
</g>
<defs>
<clipPath id="clip0_203_114">
<rect width="42" height="42" fill="white" style="fill:white;fill-opacity:1;"/>
</clipPath>
</defs>
</svg>
