<svg width="18" height="18" viewBox="0 0 18 18" fill="none" xmlns="http://www.w3.org/2000/svg">
<g clip-path="url(#clip0_203_1147)">
<rect width="18" height="18" rx="9" fill="#DF5761" style="fill:#DF5761;fill:color(display-p3 0.8745 0.3412 0.3804);fill-opacity:1;"/>
<path d="M15.9612 -6.92837L15.8053 -6.98509C15.7778 -6.99501 15.749 -7 15.7201 -7C15.616 -7 15.5218 -6.93431 15.4863 -6.83649L11.269 4.72723C11.2126 4.72026 11.1555 4.71495 11.0985 4.71062C11.0411 4.70632 10.9831 4.70399 10.925 4.70268C10.0225 4.68044 9.06065 5.01048 8.35352 5.79655L10.3821 6.19093L10.5469 6.22311L10.7117 6.2553L11.3712 6.38364L11.536 6.41583L11.7008 6.44802L13.5132 6.80025C13.5092 6.72696 13.5032 6.65595 13.4939 6.58762C13.397 5.8722 12.9005 5.31959 12.2279 5.00222C12.1781 4.97863 12.1277 4.95578 12.076 4.93489C12.0249 4.91433 11.9728 4.89573 11.9204 4.87753L16.1099 -6.60927C16.1566 -6.7383 16.0899 -6.88124 15.9612 -6.92837Z" fill="white" style="fill:white;fill-opacity:1;"/>
<path d="M10.4654 6.88312L7.91874 6.38788C6.98639 7.88147 6.64838 9.73985 5.80993 10.6782C5.49748 11.0281 4.87027 11.8918 3.87524 12.0603L9.29953 12.7236L10.7851 10.5123L10.1297 12.8252L11.5589 12.9999C11.5589 12.9999 13.2412 9.67717 13.4873 7.47083L11.3251 7.05027L10.4654 6.88312Z" fill="white" style="fill:white;fill-opacity:1;"/>
</g>
<defs>
<clipPath id="clip0_203_1147">
<rect width="18" height="18" rx="9" fill="white" style="fill:white;fill-opacity:1;"/>
</clipPath>
</defs>
</svg>
