<svg width="20" height="18" viewBox="0 0 20 18" fill="none" xmlns="http://www.w3.org/2000/svg">
<path d="M4.16377 13.4653L1.84436 15.7847L3.21536 17.1553L5.78629 14.5843C7.0279 15.2962 8.44348 15.7847 10.0001 15.7847C15.8156 15.7847 19.6926 9 19.6926 9C19.6926 9 18.2615 6.49983 15.8364 4.53468L18.1558 2.21527L16.7848 0.844749L14.2139 3.41568C12.9723 2.70377 11.5567 2.21527 10.0001 2.21527C4.18461 2.21527 0.307617 9 0.307617 9C0.307617 9 1.73871 11.5002 4.16377 13.4653ZM6.1231 9C6.1231 6.85893 7.85903 5.12301 10.0001 5.12301C10.7188 5.12301 11.3895 5.32219 11.9667 5.66288L10.4959 7.13371C10.3364 7.09155 10.1726 7.0615 10.0001 7.0615C8.93101 7.0615 8.0616 7.93092 8.0616 9C8.0616 9.17253 8.09165 9.33633 8.13381 9.49577L6.66297 10.9666C6.32228 10.3894 6.1231 9.7187 6.1231 9ZM13.8771 9C13.8771 11.1411 12.1412 12.877 10.0001 12.877C9.2814 12.877 8.61068 12.6778 8.03349 12.3371L9.50432 10.8663C9.66376 10.9085 9.82757 10.9385 10.0001 10.9385C11.0692 10.9385 11.9386 10.0691 11.9386 9C11.9386 8.82747 11.9085 8.66367 11.8664 8.50423L13.3372 7.0334C13.6779 7.61058 13.8771 8.2813 13.8771 9Z" fill="#DFDFDF" style="fill:#DFDFDF;fill:color(display-p3 0.8745 0.8745 0.8745);fill-opacity:1;"/>
</svg>
