<svg width="37" height="37" viewBox="0 0 37 37" fill="none" xmlns="http://www.w3.org/2000/svg">
<path d="M18.4997 34.888C17.4668 34.888 16.4185 34.6567 15.6014 34.1788L7.12229 29.2917C3.66896 26.9638 3.45312 26.6092 3.45312 22.9555V14.0446C3.45312 10.3909 3.65354 10.0363 7.04521 7.73923L15.586 2.8059C17.2047 1.86548 19.7485 1.86548 21.3672 2.8059L29.8772 7.7084C33.3306 10.0363 33.5464 10.3909 33.5464 14.0446V22.9401C33.5464 26.5938 33.346 26.9484 29.9543 29.2455L21.4135 34.1788C20.581 34.6567 19.5327 34.888 18.4997 34.888ZM18.4997 4.42465C17.8522 4.42465 17.2202 4.54798 16.7731 4.81007L8.29396 9.71256C5.78104 11.4084 5.78104 11.4084 5.78104 14.0446V22.9401C5.78104 25.5763 5.78104 25.5763 8.35562 27.3184L16.7731 32.1746C17.6827 32.6988 19.3322 32.6988 20.2418 32.1746L28.721 27.2721C31.2185 25.5763 31.2185 25.5763 31.2185 22.9401V14.0446C31.2185 11.4084 31.2185 11.4084 28.6439 9.66632L20.2264 4.81007C19.7793 4.54798 19.1472 4.42465 18.4997 4.42465Z" fill="black" style="fill:black;fill-opacity:1;"/>
<path d="M18.5 24.2812C15.3088 24.2812 12.7188 21.6912 12.7188 18.5C12.7188 15.3088 15.3088 12.7188 18.5 12.7188C21.6912 12.7188 24.2812 15.3088 24.2812 18.5C24.2812 21.6912 21.6912 24.2812 18.5 24.2812ZM18.5 15.0312C16.5883 15.0312 15.0312 16.5883 15.0312 18.5C15.0312 20.4117 16.5883 21.9688 18.5 21.9688C20.4117 21.9688 21.9688 20.4117 21.9688 18.5C21.9688 16.5883 20.4117 15.0312 18.5 15.0312Z" fill="black" style="fill:black;fill-opacity:1;"/>
</svg>
