<svg width="24" height="24" viewBox="0 0 24 24" fill="none" xmlns="http://www.w3.org/2000/svg">
<path d="M8 22.3194C7.72 22.3194 7.42998 22.2494 7.16998 22.1094C6.59998 21.8094 6.25 21.2094 6.25 20.5694V19.1495C3.23 18.8395 1.25 16.6194 1.25 13.4394V7.43945C1.25 3.99945 3.56 1.68945 7 1.68945H17C20.44 1.68945 22.75 3.99945 22.75 7.43945V13.4394C22.75 16.8794 20.44 19.1894 17 19.1894H13.23L8.96997 22.0295C8.67997 22.2195 8.34 22.3194 8 22.3194ZM7 3.17944C4.42 3.17944 2.75 4.84944 2.75 7.42944V13.4295C2.75 16.0095 4.42 17.6795 7 17.6795C7.41 17.6795 7.75 18.0195 7.75 18.4295V20.5595C7.75 20.6895 7.83 20.7495 7.88 20.7795C7.93001 20.8095 8.03001 20.8395 8.14001 20.7695L12.59 17.8095C12.71 17.7295 12.86 17.6795 13.01 17.6795H17.01C19.59 17.6795 21.26 16.0095 21.26 13.4295V7.42944C21.26 4.84944 19.59 3.17944 17.01 3.17944H7Z" fill="currentColor" style="fill:currentColor;fill:currentColor;fill-opacity:1;"/>
<path d="M12 14.6006C11.58 14.6006 11.25 14.2606 11.25 13.8506C11.25 13.4406 11.59 13.1006 12 13.1006C12.41 13.1006 12.75 13.4406 12.75 13.8506C12.75 14.2606 12.42 14.6006 12 14.6006Z" fill="currentColor" style="fill:currentColor;currentColor;fill-opacity:1;"/>
<path d="M8.75 14.6006C8.33 14.6006 8 14.2606 8 13.8506C8 13.4406 8.34 13.1006 8.75 13.1006C9.16 13.1006 9.5 13.4406 9.5 13.8506C9.5 14.2606 9.17 14.6006 8.75 14.6006Z" fill="currentColor" style="fill:currentColor;fill:currentColor;fill-opacity:1;"/>
<path d="M14.75 11.5C14.33 11.5 14 11.16 14 10.75C14 10.34 14.34 10 14.75 10C15.16 10 15.5 10.34 15.5 10.75C15.5 11.16 15.17 11.5 14.75 11.5Z" fill="currentColor" style="fill:currentColor;fill:currentColor;fill-opacity:1;"/>
<path d="M14.75 8.5C14.33 8.5 14 8.16 14 7.75C14 7.34 14.34 7 14.75 7C15.16 7 15.5 7.34 15.5 7.75C15.5 8.16 15.17 8.5 14.75 8.5Z" fill="currentColor" style="fill:currentColor;fill:currentColor;fill-opacity:1;"/>
<path d="M11.75 11.5C11.33 11.5 11 11.16 11 10.75C11 10.34 11.34 10 11.75 10C12.16 10 12.5 10.34 12.5 10.75C12.5 11.16 12.17 11.5 11.75 11.5Z" fill="currentColor" style="fill:currentColor;fill:currentColor;fill-opacity:1;"/>
</svg>
