<svg width="42" height="43" viewBox="0 0 42 43" fill="none" xmlns="http://www.w3.org/2000/svg">
<path d="M22.8375 28.8378H19.5475C17.22 28.8378 15.3125 26.8778 15.3125 24.4628C15.3125 23.7453 15.9075 23.1503 16.625 23.1503C17.3425 23.1503 17.9375 23.7453 17.9375 24.4628C17.9375 25.4253 18.655 26.2128 19.5475 26.2128H22.8375C23.52 26.2128 24.0625 25.6003 24.0625 24.8478C24.0625 23.9028 23.8 23.7628 23.205 23.5528L17.9375 21.7153C16.8175 21.3303 15.3125 20.5078 15.3125 17.9353C15.3125 15.7478 17.045 13.9453 19.1625 13.9453H22.4525C24.78 13.9453 26.6875 15.9053 26.6875 18.3203C26.6875 19.0378 26.0925 19.6328 25.375 19.6328C24.6575 19.6328 24.0625 19.0378 24.0625 18.3203C24.0625 17.3578 23.345 16.5703 22.4525 16.5703H19.1625C18.48 16.5703 17.9375 17.1828 17.9375 17.9353C17.9375 18.8803 18.2 19.0203 18.795 19.2303L24.0625 21.0678C25.1825 21.4528 26.6875 22.2753 26.6875 24.8478C26.6875 27.0528 24.955 28.8378 22.8375 28.8378Z" fill="#333333" style="fill:#333333;fill:color(display-p3 0.2000 0.2000 0.2000);fill-opacity:1;"/>
<path d="M21 30.5879C20.2825 30.5879 19.6875 29.9929 19.6875 29.2754V13.5254C19.6875 12.8079 20.2825 12.2129 21 12.2129C21.7175 12.2129 22.3125 12.8079 22.3125 13.5254V29.2754C22.3125 29.9929 21.7175 30.5879 21 30.5879Z" fill="#333333" style="fill:#333333;fill:color(display-p3 0.2000 0.2000 0.2000);fill-opacity:1;"/>
<path d="M21 40.2129C10.6225 40.2129 2.1875 31.7779 2.1875 21.4004C2.1875 11.0229 10.6225 2.58789 21 2.58789C21.7175 2.58789 22.3125 3.18289 22.3125 3.90039C22.3125 4.61789 21.7175 5.21289 21 5.21289C12.075 5.21289 4.8125 12.4754 4.8125 21.4004C4.8125 30.3254 12.075 37.5879 21 37.5879C29.925 37.5879 37.1875 30.3254 37.1875 21.4004C37.1875 20.6829 37.7825 20.0879 38.5 20.0879C39.2175 20.0879 39.8125 20.6829 39.8125 21.4004C39.8125 31.7779 31.3775 40.2129 21 40.2129Z" fill="#333333" style="fill:#333333;fill:color(display-p3 0.2000 0.2000 0.2000);fill-opacity:1;"/>
<path d="M36.75 13.9629H29.75C29.0325 13.9629 28.4375 13.3679 28.4375 12.6504V5.65039C28.4375 4.93289 29.0325 4.33789 29.75 4.33789C30.4675 4.33789 31.0625 4.93289 31.0625 5.65039V11.3379H36.75C37.4675 11.3379 38.0625 11.9329 38.0625 12.6504C38.0625 13.3679 37.4675 13.9629 36.75 13.9629Z" fill="#333333" style="fill:#333333;fill:color(display-p3 0.2000 0.2000 0.2000);fill-opacity:1;"/>
<path d="M29.7495 13.9634C29.417 13.9634 29.0845 13.8409 28.822 13.5784C28.3145 13.0709 28.3145 12.2309 28.822 11.7234L37.572 2.9734C38.0795 2.4659 38.9195 2.4659 39.427 2.9734C39.9345 3.4809 39.9345 4.3209 39.427 4.8284L30.677 13.5784C30.4145 13.8409 30.082 13.9634 29.7495 13.9634Z" fill="#333333" style="fill:#333333;fill:color(display-p3 0.2000 0.2000 0.2000);fill-opacity:1;"/>
</svg>
