<svg width="13" height="13" viewBox="0 0 13 13" fill="none" xmlns="http://www.w3.org/2000/svg">
<path d="M5.91675 0.166656C8.81475 0.166656 11.1667 2.51866 11.1667 5.41666C11.1667 8.31466 8.81475 10.6667 5.91675 10.6667C3.01875 10.6667 0.666748 8.31466 0.666748 5.41666C0.666748 2.51866 3.01875 0.166656 5.91675 0.166656ZM5.91675 9.49999C8.1725 9.49999 10.0001 7.67241 10.0001 5.41666C10.0001 3.16032 8.1725 1.33332 5.91675 1.33332C3.66041 1.33332 1.83341 3.16032 1.83341 5.41666C1.83341 7.67241 3.66041 9.49999 5.91675 9.49999ZM10.8663 9.54141L12.5166 11.1911L11.6912 12.0165L10.0415 10.3662L10.8663 9.54141V9.54141Z" fill="#717171" style="fill:#717171;fill:color(display-p3 0.4416 0.4416 0.4416);fill-opacity:1;"/>
</svg>
