<svg xmlns="http://www.w3.org/2000/svg" viewBox="0 0 21.75 20.81" fill="currentColor">
<path class="cls-1" d="M2.48,20.81a2.1,2.1,0,0,1-.56-.08A2.73,2.73,0,0,1,.15,19.07c-.35-.92,0-2,.73-4.25l1.19-3.71a3.34,3.34,0,0,0,.16-.53,1,1,0,0,0,0-.25,4.89,4.89,0,0,0-.16-.54L.86,6C.12,3.69-.21,2.65.14,1.73A2.7,2.7,0,0,1,1.91.08C2.86-.19,3.83.26,6,1.26L18,6.89c2,1,3,1.42,3.46,2.31a2.75,2.75,0,0,1,0,2.41c-.42.89-1.37,1.33-3.46,2.31L6,19.54C4.25,20.35,3.28,20.81,2.48,20.81Zm1.42-9.5-.11.35h0l-1.2,3.7a10.25,10.25,0,0,0-.76,3.07,1,1,0,0,0,.59.56,10,10,0,0,0,2.8-1.08l12-5.63a9.22,9.22,0,0,0,2.59-1.45,1.06,1.06,0,0,0,0-.87,9.51,9.51,0,0,0-2.6-1.45l-12-5.63a9.72,9.72,0,0,0-2.8-1.08.87.87,0,0,0-.59.56,10.07,10.07,0,0,0,.75,3.06L3.79,9.24c0,.1.06.19.08.27h6.48a.9.9,0,1,1,0,1.8Zm-1,.08h0Z"/></svg>
