<svg xmlns="http://www.w3.org/2000/svg" viewBox="0 0 511.99 507.97" fill="currentColor">
  <path d="M159.5,1.74c-26.5,9.1-48.2,45.9-62.9,106.6-11.1,45.6-16.2,89.8-17.3,149.1-1.7,95.7,12.2,184.5,37.1,237.1,6.9,14.6,2,13.4,55.1,13.4,53.3,0,48.1,1.4,55.6-14.4,14.6-30.7,26.5-79.2,32.4-132.1,5.7-51.1,6.1-119.1,1-170C250,86.54,221.1,14.54,184.4,1.94,177.2-.56,166.4-.66,159.5,1.74Zm22.4,25.7c7.1,4.7,13.6,13.8,21.6,30,17.1,34.7,28.1,81.9,34.1,146,2.1,23,3,87.7,1.5,112.7-3.9,64.6-13.8,117.5-29.4,157l-4.2,10.8H184V360.54c0-67.8-.3-124.8-.6-126.5a12.1,12.1,0,0,0-16.8-8.6c-7.1,3.4-6.6-6-6.6,133V484l-11.2-.3-11.2-.3-3.3-8c-9.6-23.4-18.5-58.8-23.8-94.5-9.9-66.4-9.8-154.5.1-219.5,11-71.9,31.5-123.5,53.9-135.9C169,23,176.5,23.84,181.9,27.44Z"/><path d="M343.5,39.34c-4.2,1.8-6.5,5.7-6.5,11,0,4,.6,5.1,7.1,12.7a94.8,94.8,0,0,1,18.1,34.4c1.8,6.8,2.2,10.6,2.1,24.5,0,15-.2,17.3-2.7,25.4-9.4,31.2-29.1,53.8-60.5,69.6-8.4,4.2-10.8,6.3-12,10.6a11.64,11.64,0,0,0,11,14.4c8.9,0,33.6-15.2,49.8-30.6a125.86,125.86,0,0,0,33.4-52.5c8.7-26.5,7.3-59.1-3.8-84.2-2-4.5-3.9-8.8-4.2-9.6-1.5-3.5,23,3.4,36.2,10.2a126.21,126.21,0,0,1,30.2,22.9c31.8,32.5,48.2,85,45.8,146.3-.6,15.1-.5,16.2,1.5,19.3a11.1,11.1,0,0,0,13.3,5c5.8-1.9,7.8-5.2,8.8-14.5,2.5-24.1-.4-61.6-6.7-86.8-4.8-19.2-14.7-43.3-24.1-58.8-20.2-33.3-53.2-57.8-89.3-66.3C373.9,38.34,349.4,36.74,343.5,39.34Z"/><path d="M347.4,275.34a20.79,20.79,0,0,0-4.9,7.3c-6.8,18.5-21.2,30.5-43.4,36.3-6.4,1.7-10.1,5.7-10.1,11.2,0,5.9,1.8,8.9,6.4,11.2,3.6,1.7,4.5,1.8,10,.7,15.1-3.1,32.6-13,43.4-24.5l6-6.5,4.3,5.6c12,15.5,29.9,24.1,47.9,23,17.1-1,31.2-8.8,44.3-24.7l3.7-4.5,2.3,3c12.5,16.9,24.6,26,37.3,28.4,9.3,1.8,15.5-1.7,17-9.4,1.3-6.9-3.4-12.1-13.2-14.5-8.9-2.2-19.1-13-29-30.6-3.2-5.8-6.6-11.2-7.6-12.1s-3.9-1.8-6.5-2c-6.5-.7-9.4,1.8-14.4,12.2-14,29.6-36.1,38.4-56.7,22.7-4.8-3.6-11.7-13.3-16.1-22.5-4.7-10-6.7-11.9-12.9-12.5C351.1,272.84,350,273.14,347.4,275.34Z"/><path d="M7.5,276.94a15.74,15.74,0,0,0-4.5,3.5c-2,2.1-2.5,3.7-2.4,7.6.1,9.1,5.4,11.9,34.4,17.8,11.1,2.3,14,1.9,18-2.1,7.8-7.8,2.9-18.3-9.8-20.8-3.1-.6-11-2.4-17.5-4C13.3,275.84,10.8,275.54,7.5,276.94Z"/><path d="M7.9,332.34c-3.8,1.2-7.9,6.6-7.9,10.3,0,3.9,3,9.3,6.1,10.9,4.2,2.1,29.3,8.4,36.4,9.1,5.5.5,6.3.3,9.1-2.1,4.5-3.7,6-7.8,4.5-12.6-1.6-5.3-4.9-7.6-13.9-9.5-4.2-1-11.3-2.6-15.7-3.7C13.8,331.44,11.5,331.14,7.9,332.34Z"/><path d="M349.1,359.74c-1.9.9-3.8,2.4-4.2,3.2s-2.6,5.4-4.8,10.1c-5.5,11.8-13.2,19.5-25.6,25.4-4.9,2.4-10.6,4.7-12.5,5-8.5,1.7-13,6.3-13,13.2,0,3.8.5,5,3.4,7.9,4.1,4.1,7.6,4.4,18.4,1.4,13.8-3.8,24.7-10.4,36.4-21.9l7.8-7.5,1.6,2.4c3.5,5.2,16.2,16.6,22,19.7a54.72,54.72,0,0,0,53.6-1.4c7-4.2,15.5-11.8,19.3-17.2,1.5-2.3,3-4.1,3.4-4.1s2.4,2.6,4.6,5.6c9.8,13.7,25.1,24.5,37,25.9,7.7,1,13.9-2.8,15.1-9.2,1.3-6.7-2.9-12.2-11.1-14.3-6.9-1.9-11.2-4.7-18.1-12.3-5.8-6.3-8.4-10.3-15.8-23.8-2.6-4.8-4.5-7.1-7-8.3-8.4-4-12.8-1.1-19.6,12.9-6.4,13.4-15.3,23-24.4,26.4-18.3,6.8-34.5-2.3-46.6-26.3C361.8,358.24,357.5,355.44,349.1,359.74Z"/><path d="M12,391.24c-7.2,3.6-8.9,13.3-3.3,18.9,3.1,3.1,15,6.8,33,10.3,8.9,1.7,9.3,1.7,13-.1,5.2-2.6,7.8-7.8,6.4-13.2-1.7-6.3-4.2-7.8-18.7-11.1-7.1-1.6-15.4-3.6-18.4-4.5C17.6,389.64,15.3,389.54,12,391.24Z"/>
</svg>
