<svg width="31" height="31" viewBox="0 0 31 31" fill="none" xmlns="http://www.w3.org/2000/svg">
<path fill-rule="evenodd" clip-rule="evenodd" d="M19.0638 5.16666H24.3571C25.9877 5.16666 27.3095 6.48848 27.3095 8.11904V13.4123C27.3095 13.8039 27.154 14.1793 26.8772 14.4562L16.8496 24.4838C15.6966 25.6367 13.8272 25.6367 12.6743 24.4838L7.99242 19.8019C6.83944 18.6489 6.83944 16.7796 7.99242 15.6266L18.02 5.59902C18.2969 5.32218 18.6723 5.16666 19.0638 5.16666Z" stroke="currentColor" style="stroke:currentColor;stroke:currentColor;stroke-opacity:1;" stroke-linecap="round" stroke-linejoin="round"/>
<path d="M12.5477 24.3571L9.57615 25.8429C8.11774 26.5721 6.34432 25.981 5.61512 24.5226C5.56895 24.4302 5.52766 24.3355 5.49141 24.2389L3.10759 17.882C2.59423 16.5131 3.16013 14.9746 4.43819 14.2645L15.5 8.11905" stroke="currentColor" style="stroke:currentColor;stroke:currentColor;stroke-opacity:1;" stroke-linecap="round" stroke-linejoin="round"/>
<path d="M25.0953 8.85714C25.0953 8.04186 24.4344 7.38095 23.6191 7.38095C22.8039 7.38095 22.1429 8.04186 22.1429 8.85714C22.1429 9.67242 22.8039 10.3333 23.6191 10.3333C24.4344 10.3333 25.0953 9.67242 25.0953 8.85714Z" fill="currentColor" style="fill:currentColor;fill:currentColor;fill-opacity:1;"/>
</svg>
