<svg width="42" height="42" viewBox="0 0 42 42" fill="none" xmlns="http://www.w3.org/2000/svg">
<path d="M12.5462 39.8113C8.38118 39.8113 4.96875 36.7838 4.96875 33.0563V29.4863C4.96875 28.7688 5.56375 28.1738 6.28125 28.1738C6.99875 28.1738 7.59375 28.7688 7.59375 29.4863C7.59375 31.6738 9.71118 33.3188 12.5462 33.3188C15.3812 33.3188 17.4987 31.6738 17.4987 29.4863C17.4987 28.7688 18.0937 28.1738 18.8112 28.1738C19.5287 28.1738 20.1237 28.7688 20.1237 29.4863V33.0563C20.1237 36.7838 16.7287 39.8113 12.5462 39.8113ZM8.04866 34.7713C8.81866 36.2063 10.5512 37.1863 12.5462 37.1863C14.5412 37.1863 16.2737 36.1888 17.0437 34.7713C15.8012 35.5238 14.2612 35.9613 12.5462 35.9613C10.8312 35.9613 9.29116 35.5238 8.04866 34.7713Z" fill="#333333" style="fill:#333333;fill:color(display-p3 0.2000 0.2000 0.2000);fill-opacity:1;"/>
<path d="M12.5462 31.1485C9.67618 31.1485 7.10373 29.836 5.82623 27.7535C5.26623 26.8435 4.96875 25.776 4.96875 24.691C4.96875 22.8535 5.77373 21.1385 7.24373 19.861C10.0787 17.376 14.9612 17.3761 17.8137 19.8436C19.2837 21.1386 20.1062 22.8535 20.1062 24.691C20.1062 25.776 19.8087 26.8435 19.2487 27.7535C17.9887 29.836 15.4162 31.1485 12.5462 31.1485ZM12.5462 20.5611C11.1812 20.5611 9.92122 21.016 8.97621 21.8385C8.08371 22.6085 7.59375 23.6235 7.59375 24.691C7.59375 25.3035 7.75118 25.8636 8.06618 26.3886C8.87118 27.7186 10.5862 28.5411 12.5462 28.5411C14.5062 28.5411 16.2212 27.7186 17.0087 26.4061C17.3237 25.8986 17.4812 25.3211 17.4812 24.7086C17.4812 23.6411 16.9912 22.626 16.0987 21.8385C15.1712 21.016 13.9112 20.5611 12.5462 20.5611Z" fill="#333333" style="fill:#333333;fill:color(display-p3 0.2000 0.2000 0.2000);fill-opacity:1;"/>
<path d="M12.5462 35.9625C8.22368 35.9625 4.96875 33.18 4.96875 29.505V24.6925C4.96875 20.965 8.36368 17.9375 12.5462 17.9375C14.5237 17.9375 16.4137 18.62 17.8312 19.845C19.3012 21.14 20.1237 22.855 20.1237 24.6925V29.505C20.1237 33.18 16.8687 35.9625 12.5462 35.9625ZM12.5462 20.5625C9.81618 20.5625 7.59375 22.4175 7.59375 24.6925V29.505C7.59375 31.6925 9.71118 33.3375 12.5462 33.3375C15.3812 33.3375 17.4987 31.6925 17.4987 29.505V24.6925C17.4987 23.625 17.0087 22.61 16.1163 21.8225C15.1712 21.0175 13.9112 20.5625 12.5462 20.5625Z" fill="#333333" style="fill:#333333;fill:color(display-p3 0.2000 0.2000 0.2000);fill-opacity:1;"/>
<path d="M33.3179 25.9006C30.6754 25.9006 28.4354 23.9406 28.2254 21.4206C28.0854 19.9681 28.6104 18.5506 29.6604 17.5181C30.5354 16.6081 31.7779 16.1006 33.0904 16.1006H36.7479C38.4804 16.1531 39.8104 17.5181 39.8104 19.1981V22.8031C39.8104 24.4831 38.4804 25.8481 36.8004 25.9006H33.3179ZM36.6954 18.7256H33.1079C32.4954 18.7256 31.9354 18.9531 31.5329 19.3731C31.0254 19.8631 30.7804 20.5281 30.8504 21.1931C30.9379 22.3481 32.0579 23.2756 33.3179 23.2756H36.7479C36.9754 23.2756 37.1854 23.0656 37.1854 22.8031V19.1981C37.1854 18.9356 36.9754 18.7431 36.6954 18.7256Z" fill="#333333" style="fill:#333333;fill:color(display-p3 0.2000 0.2000 0.2000);fill-opacity:1;"/>
<path d="M28.0018 37.1875H23.6268C22.9093 37.1875 22.3143 36.5925 22.3143 35.875C22.3143 35.1575 22.9093 34.5625 23.6268 34.5625H28.0018C32.5168 34.5625 35.4393 31.64 35.4393 27.125V25.9H33.3218C30.6793 25.9 28.4393 23.94 28.2293 21.42C28.0893 19.9675 28.6145 18.55 29.6645 17.5175C30.5395 16.6075 31.7818 16.1 33.0943 16.1H35.4218V14.875C35.4218 10.78 33.0245 7.96246 29.1395 7.50746C28.7195 7.43746 28.3518 7.4375 27.9843 7.4375H12.2344C11.8144 7.4375 11.4119 7.47248 11.0094 7.52498C7.15936 8.01498 4.79688 10.815 4.79688 14.875V18.375C4.79688 19.0925 4.20188 19.6875 3.48438 19.6875C2.76688 19.6875 2.17188 19.0925 2.17188 18.375V14.875C2.17188 9.485 5.49695 5.58252 10.6594 4.93502C11.1319 4.86502 11.6744 4.8125 12.2344 4.8125H27.9843C28.4043 4.8125 28.9468 4.83 29.5068 4.9175C34.6693 5.5125 38.0468 9.4325 38.0468 14.875V17.4125C38.0468 18.13 37.4518 18.725 36.7343 18.725H33.0943C32.4818 18.725 31.922 18.9525 31.5195 19.3725C31.012 19.8625 30.7668 20.5275 30.8368 21.1925C30.9243 22.3475 32.0445 23.275 33.3045 23.275H36.7518C37.4693 23.275 38.0643 23.87 38.0643 24.5875V27.125C38.0643 33.145 34.0218 37.1875 28.0018 37.1875Z" fill="#333333" style="fill:#333333;fill:color(display-p3 0.2000 0.2000 0.2000);fill-opacity:1;"/>
</svg>
